<svg width="219" height="214" viewBox="0 0 219 214" fill="none" xmlns="http://www.w3.org/2000/svg">
<path d="M215.042 126.121L159.005 93.3038C155.49 91.526 151.314 91.543 147.908 93.5267C147.908 93.5267 21.1964 166.642 21.0085 166.81C16.7186 170.147 17.5925 177.186 22.4782 180.043L78.5107 212.776C81.9708 214.52 86.0718 214.394 89.4191 212.441C89.4191 212.441 215.4 139.577 215.597 139.413C220.352 136.231 220.084 129.068 215.042 126.121Z" fill="#454B4D"/>
<path d="M210.617 141.324L208.731 142.406C208.184 142.721 207.743 142.385 207.744 141.656C207.745 140.925 208.187 140.077 208.732 139.762L210.619 138.678C211.165 138.363 211.607 138.7 211.606 139.429C211.605 140.16 211.162 141.009 210.617 141.324Z" fill="#454B4D"/>
<path d="M208.732 139.776C208.187 140.092 207.745 140.94 207.744 141.67C207.744 141.845 207.791 141.988 207.835 142.115C207.918 142.096 207.982 142.073 208.069 142.022L209.956 140.94C210.501 140.624 210.945 139.776 210.946 139.046C210.946 138.871 210.92 138.722 210.875 138.596C210.793 138.614 210.709 138.642 210.619 138.694L208.732 139.776Z" fill="black"/>
<path d="M208.837 139.957C208.358 140.235 207.953 141.019 207.952 141.67L207.969 141.839L209.854 140.757C210.332 140.481 210.736 139.697 210.737 139.046L210.728 138.872L210.724 138.874L208.837 139.957ZM207.702 142.36L207.64 142.185C207.59 142.044 207.535 141.876 207.535 141.67C207.536 140.861 208.017 139.95 208.629 139.596L208.63 139.595L210.517 138.511C210.616 138.455 210.719 138.417 210.832 138.391L211.009 138.353L211.071 138.525C211.125 138.679 211.154 138.854 211.154 139.046C211.153 139.854 210.672 140.766 210.06 141.12L208.172 142.205C208.067 142.263 207.987 142.295 207.88 142.319L207.702 142.36Z" fill="#454B4D"/>
<path d="M211.14 142.061C210.903 142.061 210.695 141.974 210.537 141.81C210.346 141.61 210.248 141.309 210.261 140.961C210.291 140.189 210.836 139.371 211.505 139.099C211.649 139.04 211.793 139.011 211.931 139.011C212.168 139.011 212.377 139.098 212.535 139.262C212.725 139.461 212.823 139.764 212.809 140.111C212.781 140.883 212.235 141.7 211.567 141.972C211.421 142.031 211.277 142.061 211.14 142.061Z" fill="white"/>
<path d="M211.931 138.801C211.767 138.801 211.597 138.836 211.427 138.905C210.69 139.205 210.086 140.104 210.054 140.952C210.038 141.358 210.156 141.714 210.387 141.955C210.582 142.158 210.849 142.271 211.14 142.271C211.305 142.271 211.474 142.236 211.645 142.166C212.382 141.867 212.986 140.967 213.018 140.12C213.034 139.714 212.916 139.359 212.686 139.118C212.491 138.914 212.222 138.801 211.931 138.801ZM211.931 139.219C212.342 139.219 212.623 139.561 212.602 140.103C212.576 140.79 212.077 141.539 211.489 141.778C211.366 141.828 211.248 141.852 211.14 141.852C210.729 141.852 210.449 141.511 210.468 140.969C210.495 140.281 210.994 139.531 211.583 139.293C211.706 139.243 211.823 139.219 211.931 139.219Z" fill="#454B4D"/>
<path d="M210.494 140.982C210.52 140.295 211.018 139.545 211.608 139.306C211.86 139.205 212.082 139.217 212.258 139.313L212.259 139.309L211.359 138.627C211.18 138.515 210.995 138.524 210.728 138.63C210.141 138.869 209.641 139.619 209.616 140.307C209.603 140.64 209.831 141.009 209.831 141.009L210.732 141.702C210.579 141.554 210.481 141.306 210.494 140.982Z" fill="#454B4D"/>
<path d="M173.274 162.764C173.275 162.033 173.718 161.185 174.263 160.87L179.913 157.599C180.174 157.447 180.412 157.451 180.588 157.571L179.656 156.922L179.566 156.86C179.368 156.706 179.124 156.673 178.831 156.843L173.182 160.112C172.637 160.428 172.194 161.276 172.194 162.006C172.193 162.36 172.248 162.579 172.417 162.718L172.465 162.759L172.472 162.764L172.501 162.784L173.562 163.531C173.384 163.394 173.274 163.128 173.274 162.764Z" fill="#454B4D"/>
<path d="M173.869 163.843C173.673 163.843 173.497 163.769 173.359 163.63C173.166 163.436 173.066 163.137 173.066 162.764C173.067 161.954 173.547 161.043 174.159 160.688L179.808 157.419C179.976 157.322 180.143 157.273 180.304 157.273C180.499 157.273 180.675 157.346 180.813 157.484C181.005 157.678 181.106 157.978 181.106 158.351C181.105 159.161 180.624 160.072 180.012 160.427L174.364 163.696C174.196 163.793 174.029 163.843 173.869 163.843Z" fill="white"/>
<path d="M180.304 157.063C180.107 157.063 179.904 157.122 179.705 157.238L174.056 160.508C173.386 160.896 172.859 161.887 172.858 162.763C172.857 163.193 172.981 163.543 173.212 163.777C173.39 163.957 173.617 164.051 173.87 164.051C174.067 164.051 174.268 163.993 174.468 163.878L180.116 160.608C180.787 160.22 181.313 159.229 181.314 158.351C181.314 157.922 181.192 157.57 180.96 157.337C180.782 157.158 180.555 157.063 180.304 157.063ZM180.304 157.48C180.653 157.48 180.899 157.807 180.898 158.351C180.897 159.082 180.455 159.929 179.909 160.245L174.26 163.515C174.121 163.595 173.989 163.633 173.87 163.633C173.518 163.633 173.274 163.307 173.275 162.764C173.276 162.033 173.718 161.185 174.263 160.87L179.913 157.599C180.051 157.519 180.184 157.48 180.304 157.48Z" fill="#454B4D"/>
<path d="M185.667 155.548C185.669 154.817 186.11 153.969 186.656 153.653L189.89 151.778C190.153 151.625 190.39 151.627 190.567 151.749L189.634 151.1L189.545 151.038C189.347 150.884 189.103 150.849 188.808 151.021L185.575 152.895C185.03 153.212 184.586 154.059 184.585 154.789C184.585 155.143 184.642 155.363 184.809 155.502L184.859 155.543L184.863 155.548L184.893 155.568L185.953 156.314C185.777 156.178 185.667 155.911 185.667 155.548Z" fill="#454B4D"/>
<path d="M186.262 156.626C185.862 156.626 185.458 156.293 185.458 155.548C185.461 154.737 185.941 153.826 186.553 153.471L189.786 151.597C189.954 151.499 190.121 151.451 190.282 151.451C190.477 151.451 190.654 151.524 190.792 151.663C190.984 151.855 191.085 152.156 191.085 152.528C191.084 153.338 190.603 154.25 189.991 154.604L186.757 156.479C186.589 156.577 186.423 156.626 186.262 156.626Z" fill="white"/>
<path d="M190.282 151.241C190.084 151.241 189.882 151.3 189.682 151.415L186.449 153.29C185.78 153.678 185.252 154.669 185.25 155.547C185.25 156.437 185.758 156.835 186.262 156.835C186.459 156.835 186.66 156.776 186.86 156.66L190.095 154.785C190.765 154.397 191.291 153.406 191.292 152.529C191.293 152.099 191.171 151.747 190.939 151.514C190.76 151.336 190.533 151.241 190.282 151.241ZM190.282 151.659C190.632 151.659 190.877 151.985 190.877 152.529C190.876 153.26 190.432 154.107 189.887 154.423L186.653 156.299C186.513 156.379 186.381 156.417 186.262 156.417C185.911 156.417 185.667 156.092 185.667 155.548C185.669 154.817 186.11 153.969 186.656 153.653L189.89 151.778C190.029 151.696 190.162 151.659 190.282 151.659Z" fill="#454B4D"/>
<path d="M21.0086 166.81L147.82 93.5776C151.225 91.5939 155.396 91.4711 158.911 93.2489L215.517 126.4C218.399 128.519 218.952 132.746 215.762 134.608L89.4259 207.641C86.0795 209.593 81.9775 209.719 78.5184 207.975L21.9211 174.88C17.9206 172.478 18.1556 168.723 21.0086 166.81Z" fill="black"/>
<path d="M21.1177 166.988C19.8002 167.873 19.0634 169.166 19.0972 170.533C19.1367 172.11 20.1779 173.589 22.0273 174.7L78.6227 207.795C82.0208 209.507 86.0241 209.384 89.3216 207.46L215.658 134.427C216.91 133.696 217.639 132.527 217.713 131.135C217.802 129.435 216.914 127.686 215.394 126.569L158.806 93.4294C155.352 91.6818 151.28 91.8037 147.924 93.7581L21.1177 166.988ZM83.6672 209.414C81.877 209.414 80.0831 208.999 78.4254 208.163L21.8168 175.061C19.8368 173.873 18.7251 172.269 18.6819 170.543C18.6443 169.028 19.4506 167.603 20.8931 166.636L20.9044 166.628L147.717 93.3964C151.194 91.3701 155.413 91.2445 159.005 93.0619L215.623 126.22C217.271 127.431 218.225 129.318 218.128 131.156C218.047 132.695 217.244 133.985 215.866 134.788L89.5293 207.821C87.7146 208.882 85.6933 209.414 83.6672 209.414Z" fill="#454B4D"/>
<path d="M210.811 127.867L156.777 96.5136C154.314 95.2676 151.391 95.3545 149.006 96.745L25.856 167.931C23.8571 169.272 23.6917 171.903 26.495 173.585L80.524 204.899C82.9476 206.123 85.8212 206.035 88.1668 204.665L210.983 133.618C213.22 132.313 213.122 129.035 210.811 127.867Z" fill="white"/>
<path d="M153.105 95.842C151.726 95.842 150.348 96.2038 149.11 96.9255L25.9593 168.111C25.0627 168.714 24.5553 169.602 24.5788 170.539C24.606 171.621 25.3249 172.639 26.6011 173.405L80.6273 204.718C82.986 205.906 85.7695 205.822 88.0624 204.485L210.88 133.438C211.863 132.864 212.429 131.839 212.395 130.697C212.361 129.555 211.734 128.567 210.718 128.054L210.708 128.047L156.673 96.695C155.547 96.1254 154.325 95.842 153.105 95.842ZM84.1325 205.971C82.8676 205.971 81.6008 205.677 80.4309 205.086L26.3915 173.766C24.9848 172.921 24.1935 171.78 24.1634 170.549C24.1352 169.465 24.7103 168.448 25.7393 167.756L148.903 96.5637C151.356 95.1326 154.336 95.0447 156.871 96.3275L210.911 127.684C212.061 128.268 212.772 129.389 212.81 130.684C212.85 131.982 212.206 133.148 211.088 133.799L88.2701 204.846C86.9893 205.595 85.5628 205.971 84.1325 205.971Z" fill="#454B4D"/>
<path d="M174.427 105.194L174.359 105.154C174 104.947 174.043 104.585 174.457 104.344C174.87 104.104 175.494 104.075 175.852 104.282L175.921 104.322C176.278 104.53 176.235 104.892 175.822 105.131C175.41 105.373 174.784 105.402 174.427 105.194Z" fill="#194C62"/>
<path d="M188.863 113.527L176.452 106.363C176.094 106.156 176.137 105.794 176.55 105.553C176.963 105.312 177.588 105.285 177.946 105.491L190.357 112.655C190.714 112.862 190.671 113.225 190.257 113.466C189.846 113.707 189.22 113.734 188.863 113.527Z" fill="#194C62"/>
<path d="M63.3925 202.696C63.2524 202.696 63.1049 202.654 62.9668 202.572C62.5608 202.339 62.2554 201.806 62.2554 201.335C62.2554 201.033 62.3823 200.785 62.6031 200.658C62.7018 200.6 62.8126 200.571 62.931 200.571C63.072 200.571 63.2195 200.614 63.3596 200.696C63.7636 200.93 64.0691 201.462 64.0691 201.932C64.0691 202.233 63.9422 202.48 63.7223 202.609C63.6227 202.666 63.5118 202.696 63.3925 202.696Z" fill="white"/>
<path d="M62.9322 200.362C62.778 200.362 62.6277 200.402 62.498 200.477C62.2161 200.641 62.0479 200.962 62.0479 201.335C62.0479 201.884 62.3899 202.481 62.8626 202.754C63.0317 202.853 63.215 202.904 63.3926 202.904C63.5477 202.904 63.6933 202.866 63.8249 202.791C64.1087 202.626 64.2769 202.305 64.2769 201.932C64.2769 201.384 63.9348 200.787 63.4631 200.513C63.2921 200.415 63.1088 200.362 62.9322 200.362ZM62.9322 200.78C63.0346 200.78 63.1455 200.813 63.2554 200.876C63.5956 201.074 63.8606 201.537 63.8606 201.932C63.8606 202.157 63.7723 202.338 63.6181 202.429L63.3926 202.487C63.2892 202.487 63.1783 202.454 63.0703 202.391C62.7301 202.195 62.4632 201.73 62.4632 201.335C62.4632 201.11 62.5516 200.929 62.7066 200.839L62.9322 200.78Z" fill="#454B4D"/>
<path d="M65.7663 204.072C65.6253 204.072 65.4777 204.03 65.3386 203.951C64.9327 203.715 64.6282 203.182 64.6282 202.712C64.6282 202.411 64.7541 202.164 64.9731 202.035C65.0746 201.977 65.1855 201.948 65.3039 201.948C65.4439 201.948 65.5924 201.991 65.7315 202.072C66.1374 202.308 66.4419 202.84 66.4419 203.309C66.4419 203.61 66.3169 203.856 66.097 203.986C65.9946 204.043 65.8837 204.072 65.7663 204.072Z" fill="white"/>
<path d="M65.304 201.739C65.1508 201.739 65.0024 201.779 64.8727 201.853C64.5842 202.022 64.4207 202.335 64.4207 202.712C64.4207 203.259 64.7627 203.856 65.2335 204.13C65.4046 204.229 65.5879 204.281 65.7664 204.281C65.9224 204.281 66.0681 204.243 66.1996 204.166C66.4825 204.002 66.6507 203.682 66.6507 203.309C66.6507 202.763 66.3086 202.166 65.8369 201.891C65.664 201.791 65.4807 201.739 65.304 201.739ZM65.304 202.157C65.4074 202.157 65.5183 202.189 65.6283 202.252C65.9684 202.451 66.2344 202.915 66.2344 203.309C66.2344 203.533 66.1461 203.715 65.9919 203.805L65.7664 203.863C65.6621 203.863 65.5512 203.832 65.4422 203.768C65.1029 203.571 64.836 203.106 64.836 202.712C64.836 202.487 64.9244 202.307 65.0795 202.216L65.304 202.157Z" fill="#454B4D"/>
<path d="M68.1393 205.451C67.9974 205.451 67.8537 205.409 67.7127 205.328C67.3058 205.09 67.0004 204.558 67.0004 204.09C67.0004 203.787 67.1272 203.54 67.348 203.412C67.4477 203.355 67.5585 203.326 67.6769 203.326C67.817 203.326 67.9645 203.369 68.1046 203.448C68.5105 203.684 68.8159 204.216 68.8159 204.686C68.8159 204.987 68.69 205.233 68.4701 205.363C68.3686 205.42 68.2549 205.451 68.1393 205.451Z" fill="white"/>
<path d="M67.6768 203.117C67.5236 203.117 67.3742 203.157 67.2445 203.231C66.9617 203.394 66.7925 203.715 66.7925 204.09C66.7925 204.635 67.1346 205.232 67.6054 205.508C67.7792 205.607 67.9625 205.659 68.1392 205.659C68.2923 205.659 68.4417 205.619 68.5724 205.544C68.8552 205.38 69.0234 205.059 69.0234 204.686C69.0234 204.139 68.6814 203.543 68.2087 203.268C68.0367 203.169 67.8525 203.117 67.6768 203.117ZM67.6768 203.535C67.7801 203.535 67.891 203.567 68.001 203.63C68.3402 203.827 68.6081 204.292 68.6081 204.686C68.6081 204.912 68.5179 205.093 68.3647 205.182L68.1392 205.241C68.0358 205.241 67.9249 205.209 67.8149 205.146C67.4757 204.947 67.2079 204.484 67.2079 204.09C67.2079 203.864 67.2962 203.684 67.4512 203.595L67.6768 203.535Z" fill="#454B4D"/>
<path d="M70.5118 206.827C70.3709 206.827 70.2233 206.785 70.0842 206.705C69.6783 206.469 69.3729 205.936 69.3729 205.466C69.3729 205.167 69.4988 204.92 69.7187 204.791C69.8201 204.732 69.9311 204.703 70.0504 204.703C70.1914 204.703 70.3389 204.745 70.478 204.826C70.883 205.061 71.1884 205.593 71.1884 206.063C71.1884 206.364 71.0616 206.612 70.8407 206.74C70.7421 206.798 70.6293 206.827 70.5118 206.827Z" fill="white"/>
<path d="M70.0506 204.493C69.8974 204.493 69.748 204.534 69.6174 204.607C69.3289 204.777 69.1653 205.09 69.1653 205.466C69.1653 206.015 69.5083 206.611 69.9801 206.886C70.1539 206.985 70.3363 207.035 70.512 207.035C70.6661 207.035 70.8164 206.996 70.9452 206.921C71.2318 206.755 71.3962 206.442 71.3962 206.063C71.3962 205.515 71.0542 204.918 70.5815 204.644C70.4114 204.546 70.2282 204.493 70.0506 204.493ZM70.0506 204.911C70.1539 204.911 70.2639 204.944 70.3738 205.007C70.7131 205.203 70.9809 205.667 70.9809 206.063C70.9809 206.288 70.8925 206.469 70.7366 206.56L70.512 206.618C70.4086 206.618 70.2977 206.585 70.1878 206.523C69.8476 206.325 69.5807 205.861 69.5807 205.466C69.5807 205.241 69.6709 205.062 69.8241 204.971L70.0506 204.911Z" fill="#454B4D"/>
<path d="M72.8837 208.205C72.7428 208.205 72.5943 208.161 72.4562 208.081C72.0511 207.845 71.7457 207.312 71.7457 206.843C71.7457 206.542 71.8726 206.295 72.0934 206.167C72.194 206.108 72.3049 206.079 72.4233 206.079C72.5642 206.079 72.7118 206.123 72.8499 206.203C73.2549 206.439 73.5604 206.971 73.5604 207.44C73.5604 207.742 73.4344 207.987 73.2145 208.118C73.1121 208.175 73.0012 208.205 72.8837 208.205Z" fill="white"/>
<path d="M72.4225 205.87C72.2693 205.87 72.1199 205.91 71.9902 205.985C71.7027 206.154 71.5382 206.466 71.5382 206.843C71.5382 207.389 71.8802 207.986 72.352 208.261C72.524 208.361 72.7072 208.413 72.8839 208.413C73.0399 208.413 73.1855 208.375 73.3171 208.299C73.6047 208.13 73.7682 207.818 73.7682 207.439C73.7682 206.892 73.4261 206.295 72.9535 206.021C72.7834 205.923 72.5991 205.87 72.4225 205.87ZM72.4225 206.288C72.5268 206.288 72.6377 206.321 72.7458 206.383C73.086 206.582 73.3528 207.045 73.3528 207.439C73.3528 207.666 73.2635 207.847 73.1094 207.937L72.8839 207.995C72.7815 207.995 72.6696 207.964 72.5606 207.899C72.2204 207.702 71.9545 207.237 71.9545 206.843C71.9545 206.618 72.0428 206.438 72.1979 206.347L72.4225 206.288Z" fill="#454B4D"/>
<path d="M26.2834 181.056C26.1415 181.056 25.993 181.012 25.8558 180.932C25.4518 180.699 25.1464 180.166 25.1464 179.694C25.1464 179.392 25.2723 179.146 25.4931 179.018C25.5927 178.96 25.7036 178.931 25.8229 178.931C25.9639 178.931 26.1105 178.973 26.2496 179.054C26.6546 179.288 26.9591 179.821 26.9591 180.292C26.9591 180.595 26.8331 180.841 26.6123 180.969C26.5165 181.025 26.4046 181.056 26.2834 181.056Z" fill="white"/>
<path d="M25.823 178.722C25.6689 178.722 25.5186 178.762 25.3879 178.838C25.107 179.001 24.9378 179.321 24.9378 179.695C24.9378 180.244 25.2817 180.84 25.7544 181.113C25.9226 181.213 26.1059 181.265 26.2835 181.265C26.4385 181.265 26.588 181.225 26.7177 181.149C26.9986 180.986 27.1678 180.666 27.1678 180.293C27.1678 179.743 26.8248 179.147 26.353 178.874C26.1848 178.774 26.0006 178.722 25.823 178.722ZM25.823 179.139C25.9264 179.139 26.0373 179.172 26.1463 179.236C26.4855 179.433 26.7515 179.897 26.7515 180.293C26.7515 180.517 26.6632 180.699 26.5091 180.788L26.2835 180.846C26.1801 180.846 26.0693 180.815 25.9612 180.751C25.621 180.554 25.3541 180.091 25.3541 179.695C25.3541 179.47 25.4424 179.288 25.5975 179.2L25.823 179.139Z" fill="#454B4D"/>
<path d="M28.6572 182.433C28.5172 182.433 28.3687 182.39 28.2306 182.309C27.8246 182.075 27.5192 181.541 27.5192 181.071C27.5192 180.77 27.6451 180.524 27.865 180.394C27.9665 180.337 28.0765 180.308 28.1949 180.308C28.3349 180.308 28.4824 180.35 28.6224 180.431C29.0274 180.667 29.3338 181.199 29.3338 181.669C29.3338 181.97 29.2069 182.217 28.987 182.345C28.8884 182.403 28.7765 182.433 28.6572 182.433Z" fill="white"/>
<path d="M28.1949 180.099C28.0418 180.099 27.8923 180.138 27.7627 180.213C27.4789 180.381 27.3106 180.7 27.3106 181.071C27.3106 181.62 27.6537 182.217 28.1263 182.491C28.2983 182.59 28.4806 182.641 28.6573 182.641C28.8123 182.641 28.958 182.602 29.0886 182.527C29.3733 182.361 29.5416 182.041 29.5416 181.669C29.5416 181.121 29.1995 180.525 28.7268 180.25C28.5558 180.151 28.3716 180.099 28.1949 180.099ZM28.1949 180.517C28.2983 180.516 28.4092 180.548 28.5182 180.613C28.8603 180.811 29.1253 181.274 29.1253 181.669C29.1253 181.894 29.036 182.075 28.8828 182.164L28.6573 182.222C28.553 182.222 28.4421 182.191 28.334 182.128C27.9938 181.93 27.727 181.467 27.727 181.071C27.727 180.846 27.8162 180.665 27.9703 180.576L28.1949 180.517Z" fill="#454B4D"/>
<path d="M31.03 183.811C30.89 183.811 30.7424 183.769 30.6024 183.688C30.1965 183.45 29.892 182.918 29.892 182.449C29.892 182.146 30.0189 181.898 30.2407 181.772C30.3393 181.715 30.4493 181.686 30.5686 181.686C30.7077 181.686 30.8553 181.728 30.9943 181.808C31.4012 182.044 31.7066 182.576 31.7066 183.046C31.7066 183.347 31.5798 183.594 31.3599 183.722C31.2593 183.781 31.1484 183.811 31.03 183.811Z" fill="white"/>
<path d="M30.5688 181.477C30.4156 181.477 30.2662 181.517 30.1365 181.591C29.8527 181.754 29.6845 182.075 29.6845 182.449C29.6845 182.995 30.0266 183.592 30.4964 183.868C30.6693 183.968 30.8526 184.019 31.0302 184.019C31.1815 184.019 31.3319 183.979 31.4615 183.905C31.7463 183.738 31.9145 183.418 31.9145 183.046C31.9145 182.498 31.5724 181.901 31.0997 181.627C30.9268 181.529 30.7445 181.477 30.5688 181.477ZM30.5688 181.895C30.6722 181.895 30.7821 181.927 30.8921 181.99C31.2322 182.187 31.4982 182.652 31.4982 183.046C31.4982 183.272 31.4099 183.452 31.2557 183.541L31.0302 183.601C30.9269 183.601 30.815 183.569 30.706 183.506C30.3668 183.307 30.0999 182.844 30.0999 182.449C30.0999 182.224 30.1882 182.042 30.3433 181.954L30.5688 181.895Z" fill="#454B4D"/>
<path d="M33.4029 185.188C33.2638 185.188 33.1163 185.145 32.9772 185.067C32.5703 184.829 32.2649 184.297 32.2649 183.826C32.2649 183.524 32.3918 183.277 32.6116 183.149C32.7122 183.091 32.8231 183.063 32.9415 183.063C33.0815 183.063 33.23 183.105 33.3691 183.186C33.7732 183.42 34.0786 183.952 34.0786 184.423C34.0786 184.724 33.9526 184.97 33.7327 185.1C33.6331 185.157 33.5222 185.188 33.4029 185.188Z" fill="white"/>
<path d="M32.9413 182.853C32.7881 182.853 32.6387 182.893 32.509 182.968C32.2252 183.132 32.057 183.452 32.057 183.825C32.057 184.373 32.3991 184.971 32.8699 185.245C33.0447 185.344 33.2279 185.395 33.4027 185.395C33.5587 185.395 33.7044 185.357 33.8359 185.281C34.1235 185.113 34.287 184.8 34.287 184.423C34.287 183.875 33.944 183.278 33.4713 183.005C33.3022 182.906 33.1189 182.853 32.9413 182.853ZM32.9413 183.271C33.0447 183.271 33.1555 183.303 33.2646 183.367C33.6038 183.564 33.8707 184.028 33.8707 184.423C33.8707 184.648 33.7833 184.829 33.6282 184.918L33.4027 184.978C33.2984 184.978 33.1875 184.946 33.0785 184.883C32.7392 184.685 32.4733 184.221 32.4733 183.825C32.4733 183.602 32.5607 183.419 32.7158 183.33L32.9413 183.271Z" fill="#454B4D"/>
<path d="M35.7757 186.565C35.6357 186.565 35.4881 186.522 35.349 186.442C34.9421 186.205 34.6367 185.673 34.6367 185.204C34.6367 184.902 34.7636 184.655 34.9835 184.525C35.084 184.468 35.1949 184.439 35.3133 184.439C35.4534 184.439 35.6018 184.481 35.7409 184.562C36.1469 184.797 36.4523 185.33 36.4523 185.8C36.4523 186.1 36.3263 186.348 36.1055 186.477C36.0078 186.534 35.8941 186.565 35.7757 186.565Z" fill="white"/>
<path d="M35.3131 184.23C35.16 184.23 35.0105 184.269 34.8809 184.344C34.5924 184.514 34.4288 184.826 34.4288 185.204C34.4288 185.75 34.7709 186.346 35.2427 186.622C35.4146 186.721 35.5988 186.773 35.7755 186.773C35.9287 186.773 36.0781 186.734 36.2078 186.659C36.4925 186.491 36.6607 186.172 36.6607 185.8C36.6607 185.253 36.3177 184.656 35.845 184.382C35.674 184.283 35.4898 184.23 35.3131 184.23ZM35.3131 184.648C35.4174 184.648 35.5283 184.68 35.6373 184.744C35.9766 184.941 36.2444 185.405 36.2444 185.8C36.2444 186.025 36.1551 186.206 36.001 186.296L35.7755 186.355C35.6712 186.355 35.5612 186.323 35.4513 186.26C35.1111 186.061 34.8442 185.598 34.8442 185.204C34.8442 184.978 34.9335 184.797 35.0885 184.707L35.3131 184.648Z" fill="#454B4D"/>
<path d="M59.0273 159.94L98.6915 181.613L176.326 137.113L136.677 115.42L59.0273 159.94Z" fill="#454B4D"/>
<path d="M59.0273 159.94L98.6915 181.613L176.326 137.113L136.677 115.42L59.0273 159.94Z" fill="#454B4D"/>
<mask id="mask0_21_10154" style="mask-type:luminance" maskUnits="userSpaceOnUse" x="0" y="0" width="186" height="182">
<path d="M59.0275 159.94L98.6917 181.613L176.326 137.113L185.667 0L0 16.448L59.0275 159.94Z" fill="white"/>
</mask>
<g mask="url(#mask0_21_10154)">
<path d="M99.5413 94.5496L99.6418 94.5449C100.189 94.4891 100.588 93.997 100.534 93.4462C99.5563 83.6995 103.699 72.7842 109.962 68.5976C112.539 66.8736 115.13 66.509 117.454 67.5415C120.697 68.9802 123.033 72.9146 123.861 78.3321C123.917 78.7052 123.966 79.0793 124.007 79.4552C124.068 80.0041 124.565 80.4046 125.108 80.3394C125.655 80.2799 126.049 79.7849 125.989 79.2342C125.943 78.8308 125.892 78.4294 125.83 78.0298C124.897 71.9208 122.138 67.43 118.259 65.7079C115.322 64.4053 111.983 64.8398 108.858 66.9284C101.92 71.5666 97.4898 83.0524 98.5499 93.6475C98.6015 94.1651 99.0357 94.5496 99.5413 94.5496Z" fill="white"/>
<path d="M114.787 65.1808C112.868 65.1808 110.881 65.8279 108.972 67.1032C102.095 71.7017 97.7041 83.1034 98.7575 93.6267C98.8007 94.0603 99.1757 94.3786 99.6249 94.337C100.053 94.2926 100.37 93.9025 100.327 93.468C99.343 83.6504 103.524 72.6501 109.846 68.4228C112.485 66.6583 115.144 66.2861 117.537 67.3488C120.848 68.8177 123.227 72.8107 124.066 78.3019C124.123 78.6769 124.173 79.0538 124.215 79.4316C124.237 79.6432 124.342 79.8331 124.509 79.9663C124.673 80.0976 124.875 80.1599 125.083 80.1325C125.294 80.1089 125.482 80.006 125.613 79.8406C125.745 79.6753 125.805 79.4685 125.781 79.2578C125.737 78.8573 125.686 78.4587 125.624 78.0619C124.703 72.0257 121.987 67.5916 118.174 65.8988C117.092 65.4189 115.952 65.1808 114.787 65.1808ZM99.5412 94.7583C98.9201 94.7583 98.4051 94.2898 98.3431 93.6692C97.2755 83.0033 101.746 71.4325 108.742 66.7546C111.931 64.6254 115.339 64.1843 118.342 65.5171C122.287 67.2675 125.092 71.8178 126.035 77.9986C126.098 78.4001 126.15 78.8034 126.195 79.2115C126.231 79.5336 126.139 79.8501 125.937 80.1014C125.737 80.3545 125.45 80.5123 125.13 80.5472C124.817 80.5822 124.502 80.4943 124.251 80.2941C123.996 80.091 123.836 79.801 123.8 79.4779C123.76 79.1057 123.711 78.7335 123.655 78.3651C122.838 73.0175 120.547 69.1417 117.369 67.7314C115.113 66.731 112.591 67.0899 110.077 68.7714C103.872 72.9202 99.7705 83.7496 100.74 93.4255C100.807 94.0895 100.323 94.6856 99.6625 94.7527L99.5412 94.7583Z" fill="#454B4D"/>
<path d="M84.2574 101.313L97.3225 103.299L95.9505 192.359L78.6838 194.033L84.2574 101.313Z" fill="#B9FF66"/>
<path d="M84.0629 101.072L78.4612 194.264L96.1563 192.549L97.5331 103.12L84.0629 101.072ZM84.451 101.553L97.1111 103.478L95.7457 192.169L78.9066 193.802L84.451 101.553Z" fill="#454B4D"/>
<path d="M96.2897 192.473L97.6599 103.584L104.371 110.828L107.306 201L107.708 208.852L96.2897 192.473Z" fill="#B9FF66"/>
<path d="M97.4597 103.061L96.0802 192.539L107.953 209.569L107.515 200.994L104.576 110.743L97.4597 103.061ZM97.8601 104.106L104.166 110.914L107.099 201.015L107.463 208.137L96.4984 192.41L97.8601 104.106Z" fill="#454B4D"/>
<path d="M104.723 110.846L155.043 82.2731L162.193 177.685L108.08 209.156L104.723 110.846Z" fill="#B9FF66"/>
<path d="M155.225 81.9292L104.511 110.726L107.883 209.512L162.41 177.8L155.225 81.9292ZM154.86 82.6169L161.976 177.571L108.276 208.8L104.934 110.965L154.86 82.6169Z" fill="#454B4D"/>
<path d="M141.717 82.3156L154.259 82.1805L141.796 89.389L141.717 82.3156Z" fill="#B9FF66"/>
<path d="M155.052 81.9623L141.508 82.1087L141.592 89.748L155.052 81.9623ZM153.466 82.3987L142 89.0301L141.929 82.5234L153.466 82.3987Z" fill="#454B4D"/>
<path d="M135.525 72.0228L141.366 82.1928L141.451 89.5865L135.118 93.1865L135.525 72.0228Z" fill="#B9FF66"/>
<path d="M135.331 71.2662L134.902 93.5492L141.661 89.7083L141.574 82.1361L135.331 71.2662ZM135.717 72.7776L141.158 82.2504L141.242 89.4656L135.332 92.8237L135.717 72.7776Z" fill="#454B4D"/>
<path d="M134.964 93.52L135.421 71.4278L84.0441 101.142L97.4785 103.192L104.531 110.802L134.964 93.52Z" fill="#454B4D"/>
<path d="M148.598 117.847L149.084 121.946L112.075 143.3L111.59 139.283L148.598 117.847Z" fill="white"/>
<path d="M111.812 139.395L112.244 142.962L148.861 121.834L148.429 118.187L111.812 139.395ZM111.907 143.64L111.367 139.17L111.486 139.101L148.767 117.508L149.307 122.058L149.187 122.128L111.907 143.64Z" fill="#454B4D"/>
<path d="M143.1 129.441L143.586 133.541L124.118 144.809L123.632 140.791L143.1 129.441Z" fill="white"/>
<path d="M123.855 140.903L124.286 144.47L143.363 133.429L142.931 129.781L123.855 140.903ZM123.95 145.147L123.41 140.679L143.269 129.101L143.809 133.654L143.69 133.722L123.95 145.147Z" fill="#454B4D"/>
<path d="M112.342 112.45L112.443 112.447C112.991 112.39 113.39 111.899 113.335 111.347C112.358 101.6 116.501 90.6841 122.763 86.4975C125.34 84.7736 127.931 84.408 130.255 85.4414C133.499 86.8801 135.835 90.8145 136.663 96.2339C136.719 96.6051 136.768 96.9801 136.809 97.3542C136.869 97.9049 137.366 98.2979 137.91 98.2412C138.456 98.1789 138.851 97.6848 138.79 97.1341C138.746 96.7308 138.693 96.3283 138.632 95.9297C137.699 89.8207 134.939 85.3299 131.061 83.6088C128.123 82.3062 124.786 82.7397 121.659 84.8283C114.723 89.4656 110.291 100.953 111.352 111.548C111.403 112.064 111.837 112.45 112.342 112.45Z" fill="white"/>
<path d="M127.588 83.0817C125.668 83.0817 123.682 83.7278 121.774 85.0031C114.896 89.6006 110.505 101.003 111.559 111.528C111.603 111.962 111.983 112.279 112.426 112.237C112.632 112.216 112.821 112.114 112.954 111.95C113.087 111.785 113.15 111.579 113.128 111.369C112.144 101.549 116.326 90.5491 122.648 86.3228C125.288 84.5572 127.947 84.186 130.339 85.2506C133.649 86.7176 136.029 90.7096 136.867 96.2018C136.925 96.5768 136.975 96.9537 137.016 97.3316C137.063 97.7642 137.454 98.075 137.888 98.0334C138.318 97.9843 138.631 97.5913 138.583 97.1568C138.539 96.7563 138.487 96.3567 138.426 95.9609C137.505 89.9247 134.789 85.4915 130.977 83.7996C129.893 83.3207 128.753 83.0817 127.588 83.0817ZM112.342 112.659C111.722 112.659 111.207 112.191 111.145 111.57C110.077 100.903 114.547 89.3324 121.544 84.6545C124.731 82.5263 128.14 82.0861 131.145 83.418C135.089 85.1684 137.894 89.7168 138.838 95.8985C138.899 96.3 138.953 96.7052 138.997 97.1105C139.07 97.7736 138.593 98.3735 137.933 98.4481C137.258 98.5152 136.675 98.0372 136.602 97.3769C136.562 97.0057 136.512 96.6335 136.457 96.2651C135.64 90.9175 133.349 87.0416 130.171 85.6322C127.916 84.63 125.393 84.9889 122.879 86.6713C116.674 90.8192 112.573 101.649 113.542 111.326C113.574 111.648 113.48 111.964 113.276 112.215C113.072 112.465 112.784 112.62 112.464 112.654L112.342 112.659Z" fill="#454B4D"/>
</g>
<path d="M139.959 52.0429L140.281 54.8381L165.003 25.2114H159.137L139.959 52.0429Z" fill="#454B4D"/>
<path d="M161.703 48.628C160.577 48.3314 159.982 47.3745 159.798 46.2683C159.774 46.1295 159.743 45.8329 159.743 45.8329L159.712 48.1803C159.726 49.4026 160.02 50.8253 161.225 51.4053C162.223 51.8842 163.698 51.8001 164.538 51.0378C165.203 50.4314 165.537 49.3989 165.537 47.9403V44.9931C165.537 46.4525 165.203 47.486 164.538 48.0915C163.8 48.7612 162.634 48.8746 161.703 48.628Z" fill="#454B4D"/>
<path d="M165.39 38.3638C162.729 37.6279 159.468 38.0511 157.418 40.0159C156.053 41.328 155.372 43.0983 155.372 45.3314V48.2777C155.372 46.0455 156.053 44.2734 157.418 42.9623C159.468 40.9965 162.729 40.5733 165.39 41.311C167.982 42.028 169.555 44.1544 169.795 46.806C169.82 47.0676 169.82 44.1213 169.795 43.8606C169.555 41.2081 167.982 39.0808 165.39 38.3638Z" fill="#454B4D"/>
<path d="M159.172 25.2116L159.426 28.0823H165.27L165.015 25.2116H159.172Z" fill="#454B4D"/>
<path d="M140.227 54.9138H146.049L165.27 28.0824H159.404L140.227 54.9138Z" fill="black"/>
<path d="M140.632 54.705H145.943L164.864 28.292H159.511L140.632 54.705ZM146.156 55.1235H139.821L159.298 27.8726H165.676L146.156 55.1235Z" fill="#454B4D"/>
<path d="M162.614 51.6831C160.68 51.6831 159.712 50.4862 159.712 48.0897C159.712 45.5571 160.707 44.2913 162.696 44.2913C163.546 44.2913 164.233 44.6096 164.755 45.2444C165.275 45.8811 165.537 46.7795 165.537 47.9404C165.537 50.4352 164.563 51.6831 162.614 51.6831ZM162.883 40.9983C160.606 40.9983 158.784 41.6529 157.418 42.9622C156.053 44.2734 155.372 46.0455 155.372 48.2777C155.372 50.3238 156.011 51.9504 157.295 53.1614C158.577 54.3696 160.268 54.9761 162.369 54.9761C164.632 54.9761 166.442 54.3215 167.8 53.0122C169.157 51.701 169.837 49.9421 169.837 47.7345C169.837 45.5892 169.228 43.9305 168.006 42.7572C166.783 41.584 165.075 40.9983 162.883 40.9983Z" fill="black"/>
<path d="M162.696 44.501C160.829 44.501 159.921 45.6743 159.921 48.0897C159.921 50.3672 160.802 51.4743 162.614 51.4743C164.441 51.4743 165.328 50.3181 165.328 47.9404C165.328 46.8352 165.081 45.9737 164.594 45.3786C164.11 44.7882 163.488 44.501 162.696 44.501ZM162.614 51.8928C160.551 51.8928 159.505 50.6138 159.505 48.0897C159.505 45.4306 160.579 44.0826 162.696 44.0826C163.608 44.0826 164.355 44.4292 164.916 45.1122C165.465 45.7839 165.744 46.7351 165.744 47.9404C165.744 50.5628 164.691 51.8928 162.614 51.8928ZM162.883 41.208C160.671 41.208 158.881 41.8485 157.561 43.1134C156.247 44.3764 155.579 46.1145 155.579 48.2777C155.579 50.2539 156.204 51.8446 157.438 53.0084C158.675 54.1751 160.333 54.7664 162.368 54.7664C164.565 54.7664 166.345 54.125 167.657 52.8611C168.965 51.5971 169.629 49.8713 169.629 47.7345C169.629 45.6582 169.034 44.0344 167.863 42.9074C166.685 41.7795 165.011 41.208 162.883 41.208ZM162.368 55.1849C160.224 55.1849 158.47 54.5548 157.153 53.3126C155.833 52.0685 155.164 50.3738 155.164 48.2777C155.164 45.9955 155.874 44.1562 157.275 42.8111C158.674 41.4697 160.561 40.7886 162.883 40.7886C165.12 40.7886 166.893 41.4007 168.15 42.6051C169.408 43.8133 170.045 45.5401 170.045 47.7345C170.045 49.9903 169.338 51.8163 167.944 53.1624C166.553 54.5047 164.677 55.1849 162.368 55.1849Z" fill="#454B4D"/>
<path d="M143.32 35.4117C142.195 35.1141 141.6 34.1581 141.416 33.052C141.391 32.9122 141.374 32.7676 141.36 32.6174C141.343 32.4266 141.33 34.9346 141.33 34.9639C141.343 36.1863 141.638 37.6098 142.842 38.1889C143.841 38.6688 145.317 38.5838 146.155 37.8214C146.822 37.215 147.155 36.1825 147.155 34.724V31.7777C147.155 33.2362 146.822 34.2696 146.155 34.8741C145.417 35.5439 144.252 35.6582 143.32 35.4117Z" fill="#454B4D"/>
<path d="M147.008 25.1483C144.346 24.4105 141.085 24.8337 139.035 26.8005C137.67 28.1097 136.99 29.8819 136.99 32.1159V35.0623C136.99 32.8282 137.67 31.0561 139.035 29.7468C141.085 27.7801 144.346 27.3569 147.008 28.0946C149.6 28.8116 151.172 30.938 151.414 33.5896C151.437 33.8503 151.437 30.904 151.414 30.6433C151.172 27.9907 149.6 25.8643 147.008 25.1483Z" fill="#454B4D"/>
<path d="M144.232 38.4656C142.298 38.4656 141.33 37.2688 141.33 34.8732C141.33 32.3406 142.325 31.0748 144.314 31.0748C145.163 31.0748 145.85 31.3922 146.373 32.0289C146.893 32.6656 147.155 33.5639 147.155 34.7239C147.155 37.2187 146.179 38.4656 144.232 38.4656ZM144.501 27.7818C142.223 27.7818 140.401 28.4365 139.035 29.7467C137.67 31.0559 136.99 32.8281 136.99 35.0621C136.99 37.1063 137.63 38.733 138.913 39.945C140.195 41.1541 141.887 41.7596 143.985 41.7596C146.25 41.7596 148.06 41.105 149.418 39.7957C150.776 38.4855 151.455 36.7256 151.455 34.519C151.455 32.3718 150.845 30.714 149.623 29.5407C148.402 28.3684 146.693 27.7818 144.501 27.7818Z" fill="black"/>
<path d="M144.314 31.2855C142.445 31.2855 141.538 32.4587 141.538 34.8732C141.538 37.1498 142.419 38.2569 144.232 38.2569C146.059 38.2569 146.947 37.1016 146.947 34.724C146.947 33.6197 146.7 32.7572 146.212 32.1611C145.728 31.5717 145.107 31.2855 144.314 31.2855ZM144.232 38.6754C142.168 38.6754 141.122 37.3954 141.122 34.8732C141.122 32.2141 142.196 30.8661 144.314 30.8661C145.226 30.8661 145.973 31.2137 146.533 31.8957C147.083 32.5683 147.362 33.5205 147.362 34.724C147.362 37.3463 146.31 38.6754 144.232 38.6754ZM144.501 27.9906C142.289 27.9906 140.498 28.632 139.179 29.8978C137.864 31.1589 137.197 32.897 137.197 35.0612C137.197 37.0374 137.822 38.6291 139.055 39.7929C140.292 40.9585 141.95 41.5499 143.985 41.5499C146.183 41.5499 147.963 40.9094 149.274 39.6446C150.583 38.3806 151.247 36.6557 151.247 34.519C151.247 32.4417 150.652 30.8188 149.479 29.6919C148.303 28.563 146.628 27.9906 144.501 27.9906ZM143.985 41.9684C141.841 41.9684 140.087 41.3383 138.77 40.097C137.451 38.8511 136.782 37.1564 136.782 35.0612C136.782 32.778 137.491 30.9379 138.891 29.5955C140.291 28.2532 142.178 27.5721 144.501 27.5721C146.738 27.5721 148.511 28.1833 149.767 29.3896C151.024 30.5978 151.662 32.3236 151.662 34.519C151.662 36.7738 150.956 38.6007 149.562 39.9469C148.17 41.2882 146.294 41.9684 143.985 41.9684Z" fill="#454B4D"/>
<path d="M52.3149 33.444L53.202 35.6592L22.8289 23.6548L27.2006 21.2629L52.3149 33.444Z" fill="#454B4D"/>
<path d="M34.7337 39.76C35.4517 39.0808 35.5099 38.1248 35.2007 37.2255C35.1622 37.1122 35.0663 36.8798 35.0663 36.8798L36.0362 38.616C36.5192 39.5323 36.8735 40.7122 36.2091 41.636C35.6584 42.3993 34.526 42.9387 33.5919 42.712C32.8514 42.5315 32.187 41.8977 31.5978 40.8113L30.41 38.6141C30.9982 39.7023 31.6636 40.3362 32.4031 40.5157C33.2226 40.715 34.1379 40.3239 34.7337 39.76Z" fill="#454B4D"/>
<path d="M27.8452 33.6141C29.5311 31.9808 32.1322 30.9672 34.4524 31.5963C35.9983 32.0167 37.2209 33.0596 38.1212 34.7231L39.3099 36.9193C38.4087 35.2558 37.1871 34.212 35.6412 33.7926C33.3201 33.1616 30.7189 34.1761 29.033 35.8103C27.3913 37.4002 27.0765 39.6267 27.9664 41.7011C28.0529 41.9051 26.865 39.7098 26.7786 39.5057C25.8886 37.4313 26.2025 35.2039 27.8452 33.6141Z" fill="#454B4D"/>
<path d="M27.1743 21.2781L28.1432 23.5216L23.7876 25.9021L22.8196 23.6585L27.1743 21.2781Z" fill="#454B4D"/>
<path d="M53.2724 35.6932L48.9336 38.0652L23.7873 25.902L28.1599 23.5121L53.2724 35.6932Z" fill="black"/>
<path d="M24.2442 25.8917L48.9281 37.83L52.8167 35.7036L28.1647 23.7474L24.2442 25.8917ZM48.9394 38.3004L48.8436 38.2541L23.3317 25.9134L28.1535 23.2769L28.2493 23.3242L53.7283 35.6819L48.9394 38.3004Z" fill="#454B4D"/>
<path d="M31.5975 40.8111C31.1295 39.9459 30.9623 39.1694 31.0938 38.4836C31.2254 37.7968 31.6107 37.2791 32.2431 36.9334C33.7251 36.1239 34.9777 36.6604 35.9983 38.5478C36.9653 40.3341 36.7265 41.6207 35.285 42.4085C33.8331 43.203 32.604 42.6692 31.5975 40.8111ZM27.6666 37.9536C27.2296 39.3262 27.4448 40.8111 28.3103 42.4095C29.2012 44.055 30.4162 45.0894 31.9565 45.5126C33.4967 45.9339 35.1102 45.6855 36.797 44.7626C38.3617 43.9067 39.3775 42.7666 39.8455 41.342C40.3135 39.9166 40.135 38.4439 39.3099 36.9193C38.4087 35.2557 37.187 34.2119 35.6411 33.7925C34.0953 33.3731 32.4733 33.6272 30.7752 34.5558C29.141 35.4494 28.1054 36.582 27.6666 37.9536Z" fill="black"/>
<path d="M31.7809 40.711C32.2582 41.5942 32.7892 42.1667 33.3568 42.4123C33.915 42.6551 34.5127 42.5918 35.1855 42.2253C35.8546 41.8597 36.2324 41.3978 36.3404 40.8149C36.4495 40.2226 36.2728 39.4934 35.8161 38.6479C34.8529 36.8663 33.7148 36.3685 32.3428 37.1176C31.7602 37.435 31.4182 37.896 31.2979 38.5232C31.1766 39.158 31.3382 39.8939 31.7809 40.711ZM34.0409 42.9743C33.7478 42.9743 33.4649 42.9148 33.1923 42.7968C32.5364 42.5124 31.9388 41.8786 31.4153 40.9103C30.9267 40.0063 30.7491 39.1769 30.8891 38.4439C31.0338 37.6967 31.4548 37.1261 32.1436 36.7501C33.7412 35.8735 35.0991 36.4479 36.1807 38.4486C36.6854 39.38 36.877 40.2019 36.7492 40.8914C36.6196 41.5961 36.16 42.1686 35.3847 42.5918C34.9205 42.8468 34.4704 42.9743 34.0409 42.9743ZM27.865 38.0178C27.4478 39.3252 27.6592 40.7705 28.4928 42.3103C29.3507 43.8944 30.5348 44.9043 32.012 45.3105C33.494 45.7166 35.0681 45.4692 36.6976 44.5793C38.2068 43.7537 39.1991 42.6428 39.6483 41.2768C40.0947 39.9156 39.9199 38.4836 39.1277 37.0184C38.2585 35.4144 37.0678 34.3971 35.5868 33.9947C34.1011 33.5913 32.5158 33.8426 30.875 34.739C29.2972 35.6024 28.2841 36.7057 27.865 38.0178ZM33.4235 45.9188C32.9085 45.9188 32.4011 45.8517 31.9021 45.7147C30.3111 45.2764 29.0416 44.1986 28.1272 42.5096C27.2382 40.865 27.0165 39.312 27.4685 37.8903C27.9224 36.4715 29.0021 35.2879 30.6758 34.3716C32.4143 33.4194 34.1049 33.1577 35.6949 33.5903C37.2896 34.0239 38.5676 35.1103 39.4923 36.8191C40.3418 38.3891 40.527 39.9326 40.043 41.4072C39.56 42.878 38.5019 44.0682 36.8968 44.9468C35.7118 45.5938 34.5493 45.9188 33.4235 45.9188Z" fill="#454B4D"/>
<path d="M43.1028 22.4201C43.8207 21.7391 43.8781 20.784 43.5698 19.8847C43.5313 19.7714 43.4871 19.6561 43.4364 19.5381C43.3716 19.3888 44.393 21.2526 44.4043 21.2762C44.8873 22.1915 45.2425 23.3723 44.5782 24.2943C44.0265 25.0594 42.8932 25.597 41.961 25.3702C41.2195 25.1908 40.5552 24.5578 39.9669 23.4696L38.7781 21.2743C39.3664 22.3606 40.0318 22.9954 40.7732 23.1749C41.5927 23.3742 42.507 22.9832 43.1028 22.4201Z" fill="#454B4D"/>
<path d="M36.2137 16.2735C37.9006 14.6402 40.5008 13.6247 42.8219 14.2557C44.3678 14.6761 45.5894 15.719 46.4907 17.3834L47.6785 19.5787C46.7782 17.9143 45.5556 16.8724 44.0107 16.452C41.6895 15.8219 39.0893 16.8355 37.4025 18.4688C35.7598 20.0596 35.446 22.2851 36.3359 24.3614C36.4233 24.5636 35.2345 22.3683 35.1471 22.1642C34.2572 20.0898 34.572 17.8642 36.2137 16.2735Z" fill="#454B4D"/>
<path d="M39.9669 23.4696C39.4989 22.6043 39.3307 21.8288 39.4623 21.142C39.5948 20.4553 39.9791 19.9395 40.6125 19.5928C42.0944 18.7823 43.3462 19.3207 44.3677 21.2072C45.3347 22.9916 45.096 24.2801 43.6544 25.0679C42.2035 25.8605 40.9734 25.3296 39.9669 23.4696ZM36.036 20.613C35.6 21.9856 35.8142 23.4696 36.6797 25.0689C37.5697 26.7144 38.7857 27.7488 40.3259 28.172C41.8661 28.5942 43.4787 28.3439 45.1665 27.4219C46.7302 26.5661 47.747 25.4259 48.214 24.0014C48.6829 22.5769 48.5035 21.1023 47.6784 19.5786C46.7781 17.9142 45.5555 16.8723 44.0106 16.4519C42.4647 16.0315 40.8427 16.2866 39.1456 17.2142C37.5104 18.1078 36.4739 19.2414 36.036 20.613Z" fill="black"/>
<path d="M41.8811 19.4398C41.5118 19.4398 41.1227 19.5522 40.7121 19.7761C40.1294 20.0954 39.7874 20.5545 39.6671 21.1817C39.545 21.8174 39.7075 22.5543 40.1492 23.3704C41.0983 25.1218 42.2119 25.6196 43.5548 24.8838C44.8864 24.1554 45.0931 22.985 44.1853 21.3064C43.5097 20.0585 42.7485 19.4398 41.8811 19.4398ZM42.3998 25.6385C41.4056 25.6385 40.5298 24.947 39.7846 23.5698C39.295 22.6667 39.1174 21.8364 39.2583 21.1024C39.4021 20.3552 39.8241 19.7865 40.5129 19.4086C42.1085 18.5386 43.4683 19.1073 44.5509 21.1071C45.578 23.0058 45.3102 24.4001 43.754 25.2512C43.2813 25.5091 42.8302 25.6385 42.3998 25.6385ZM36.2343 20.6763C35.818 21.9856 36.0294 23.43 36.862 24.9688C37.72 26.5548 38.904 27.5637 40.3813 27.9699C41.8604 28.377 43.4364 28.1305 45.0668 27.2378C46.576 26.4112 47.5684 25.3013 48.0176 23.9353C48.4639 22.576 48.2882 21.143 47.496 19.6788C46.6267 18.0729 45.4361 17.0546 43.956 16.6531C42.4713 16.2498 40.8859 16.5001 39.2452 17.3984C37.6664 18.2618 36.6534 19.3652 36.2343 20.6763ZM41.7928 28.5782C41.2769 28.5782 40.7694 28.5102 40.2713 28.3742C38.6804 27.9368 37.4108 26.858 36.4964 25.1681C35.6075 23.5253 35.3857 21.9714 35.8386 20.5488C36.2906 19.1309 37.3694 17.9473 39.0459 17.031C40.7844 16.0797 42.4722 15.8171 44.0641 16.2498C45.6588 16.6824 46.9359 17.7687 47.8616 19.4795C48.7111 21.0495 48.8962 22.593 48.4113 24.0666C47.9292 25.5365 46.8711 26.7267 45.266 27.6052C44.081 28.2533 42.9176 28.5782 41.7928 28.5782Z" fill="#454B4D"/>
<path d="M54.4239 110.063C53.9108 111.822 53.2765 113.42 52.567 114.833L50.0015 123.619L46.6579 122.633L46.6617 122.623C43.8453 121.557 42.3342 115.081 44.6413 107.178C46.9483 99.2719 51.7024 94.646 54.6457 95.279L54.6494 95.2676L57.9921 96.2538L55.4266 105.041C55.2631 106.616 54.9389 108.305 54.4239 110.063Z" fill="#454B4D"/>
<path d="M50.9929 123.589C50.757 123.589 50.5296 123.557 50.3191 123.495C48.9424 123.089 47.8476 121.262 47.3899 118.606C46.8759 115.627 47.1879 111.948 48.2686 108.247C50.4272 100.854 54.6672 96.437 57.5193 96.437C57.7543 96.437 57.9817 96.4692 58.1922 96.5315C61.0236 97.3666 62.562 103.834 60.2418 111.781C58.0841 119.172 53.8441 123.589 50.9929 123.589Z" fill="#B9FF66"/>
<path d="M57.5183 96.2292C54.5619 96.2292 50.2363 100.765 48.0693 108.188C45.7143 116.251 47.3344 122.833 50.2598 123.695C50.4919 123.763 50.7372 123.797 50.9928 123.797C53.9492 123.797 58.2748 119.261 60.4418 111.839C62.7958 103.776 61.1767 97.1937 58.2504 96.3303C58.0182 96.2623 57.7739 96.2283 57.5183 96.2292ZM57.5192 96.6468C57.7344 96.6468 57.9421 96.6751 58.1338 96.7318C59.4316 97.1144 60.4718 98.8808 60.9163 101.457C61.4247 104.404 61.1146 108.049 60.0424 111.721C57.9402 118.922 53.7077 123.38 50.9928 123.38C50.7767 123.38 50.569 123.352 50.3772 123.295C47.6454 122.489 46.249 115.907 48.4686 108.306C50.5708 101.104 54.8034 96.6468 57.5192 96.6468Z" fill="#454B4D"/>
<path d="M83.3468 53.6243L80.9204 52.4784C78.0543 50.6335 73.88 55.6675 72.8425 59.4782C72.8425 59.4782 66.4373 54.8183 62.5694 63.0602C58.3124 72.1325 72.8688 76.9067 72.8688 76.9067C72.8688 76.9067 85.3832 61.7302 82.4832 54.5708L83.3468 53.6243Z" fill="#454B4D"/>
<path d="M75.6035 60.8073C75.6035 60.8073 69.1983 56.1475 65.3304 64.3904C61.0734 73.4608 75.6308 78.2349 75.6308 78.2349C75.6308 78.2349 88.4027 62.7476 85.155 55.6827C82.534 49.9818 76.8411 56.2665 75.6035 60.8073Z" fill="black"/>
<path d="M71.5194 59.7058C71.0871 59.7058 70.6398 59.754 70.185 59.8721C68.2924 60.3633 66.7221 61.9134 65.5192 64.479C64.5889 66.459 64.5147 68.387 65.2965 70.2092C67.3226 74.9305 74.489 77.6114 75.5612 77.9892C76.6983 76.5798 87.9788 62.3253 84.966 55.7705C84.2669 54.2505 83.3074 53.5222 82.1421 53.6289C79.6246 53.8387 76.6682 57.6899 75.8046 60.862L75.7257 61.153L75.4822 60.9763C75.4616 60.9612 73.6996 59.7058 71.5194 59.7058ZM75.7003 78.4776L75.5659 78.4332C75.2248 78.3217 67.1694 75.6276 64.914 70.3745C64.0833 68.438 64.1604 66.3948 65.1424 64.3005C66.4026 61.6149 68.0649 59.9882 70.0844 59.4668C72.5446 58.8311 74.7615 60.0232 75.4832 60.4757C76.4756 57.2299 79.5005 53.4296 82.1074 53.2124C83.049 53.134 84.3721 53.4835 85.3429 55.5947C88.6094 62.6984 76.3158 77.7323 75.7905 78.368L75.7003 78.4776Z" fill="#454B4D"/>
<path d="M116.562 8.95908L122.06 21.6692L108.182 40.731L102.683 28.0209L116.562 8.95908Z" fill="#B9FF66"/>
<path d="M102.921 28.0473L108.229 40.3125L121.822 21.6427L116.515 9.37659L102.921 28.0473ZM108.136 41.1485L102.445 27.9935L102.515 27.8971L116.608 8.54155L122.298 21.6956L122.228 21.7929L108.136 41.1485Z" fill="#454B4D"/>
<path d="M108.182 40.731L93.3521 39.0684L87.8171 26.3545L102.683 28.0209L108.182 40.731Z" fill="#B9FF66"/>
<path d="M93.4949 38.8738L107.848 40.4825L102.541 28.2155L88.1516 26.603L93.4949 38.8738ZM108.517 40.9785L93.2102 39.263L87.4815 26.1061L102.826 27.8263L108.517 40.9785Z" fill="#454B4D"/>
<path d="M116.561 8.9591L102.683 28.0209L87.739 26.3451L101.618 7.28332L116.561 8.9591Z" fill="#B9FF66"/>
<path d="M88.1187 26.1768L102.586 27.7988L116.182 9.1271L101.715 7.50514L88.1187 26.1768ZM102.779 28.2418L102.66 28.2276L87.3594 26.5131L101.521 7.06211L101.641 7.07629L116.942 8.7908L102.779 28.2418Z" fill="#454B4D"/>
<path d="M109.526 8.15332L95.5672 27.2104L96.6422 29.6797L93.995 29.4558L92.8918 26.9232L106.883 7.82269L109.526 8.15332Z" fill="white"/>
<path d="M94.136 29.2574L96.3124 29.4425L95.3285 27.1839L95.3999 27.0866L109.148 8.31668L106.978 8.04369L93.1305 26.9506L94.136 29.2574ZM96.973 29.9177L93.854 29.6541L92.654 26.8967L92.7245 26.8004L106.789 7.59875L109.905 7.99079L95.8059 27.2378L96.973 29.9177Z" fill="#454B4D"/>
<path d="M110.24 35.9747L108.572 38.2494L108.528 38.1445L110.195 35.8689L110.24 35.9747Z" fill="#454B4D"/>
<path d="M110.388 36.3129L108.721 38.5894L108.675 38.4855L110.343 36.2099L110.388 36.3129Z" fill="#454B4D"/>
<path d="M109.941 34.1148L107.633 37.2642L107.516 36.9931L109.823 33.8436L109.941 34.1148Z" fill="#454B4D"/>
<path d="M110.093 35.6338L108.426 37.9104L108.379 37.8055L110.047 35.5299L110.093 35.6338Z" fill="#454B4D"/>
<path d="M109.796 34.9545L108.129 37.2311L108.083 37.1263L109.75 34.8497L109.796 34.9545Z" fill="#454B4D"/>
<path d="M109.944 35.2946L108.278 37.5712L108.232 37.4663L109.899 35.1898L109.944 35.2946Z" fill="#454B4D"/>
<path d="M113.693 14.0525L116.416 10.3335L117.517 12.8623L114.792 16.5813L113.693 14.0525Z" fill="white"/>
<path d="M116.462 9.91881L116.036 10.5017L113.596 13.8315L113.453 14.0261L113.55 14.2481L114.458 16.3339L114.746 16.997L115.174 16.4132L117.613 13.0824L117.755 12.8887L117.659 12.6677L116.752 10.5829L116.462 9.91881ZM116.37 10.7491L117.279 12.8349L114.838 16.1657L113.932 14.0799L116.37 10.7491Z" fill="#454B4D"/>
<path d="M116.209 11.6248L114.485 13.9789L114.438 13.8712L116.162 11.5171L116.209 11.6248Z" fill="#454B4D"/>
<path d="M116.821 13.0304L115.097 15.3854L115.05 15.2768L116.775 12.9227L116.821 13.0304Z" fill="#454B4D"/>
<path d="M116.516 12.3275L114.791 14.6825L114.744 14.5748L116.468 12.2198L116.516 12.3275Z" fill="#454B4D"/>
<path d="M116.669 12.68L114.944 15.035L114.896 14.9254L116.621 12.5714L116.669 12.68Z" fill="#454B4D"/>
<path d="M116.362 11.9763L114.638 14.3303L114.591 14.2226L116.315 11.8686L116.362 11.9763Z" fill="#454B4D"/>
<path d="M104.025 27.7385C104.156 27.6799 104.264 27.8037 104.265 28.0134C104.265 28.2222 104.159 28.4385 104.028 28.4971C103.896 28.5537 103.79 28.4319 103.789 28.2221C103.788 28.0134 103.893 27.7952 104.025 27.7385Z" fill="#454B4D"/>
<path d="M104.767 26.7249C104.899 26.6673 105.006 26.7891 105.007 26.9988C105.008 27.2076 104.901 27.4258 104.771 27.4825C104.638 27.541 104.532 27.4173 104.53 27.2076C104.529 26.9988 104.636 26.7825 104.767 26.7249Z" fill="#454B4D"/>
<path d="M105.51 25.7112C105.641 25.6536 105.748 25.7764 105.749 25.9842C105.75 26.1949 105.644 26.4112 105.513 26.4698C105.381 26.5274 105.274 26.4037 105.273 26.1949C105.272 25.9842 105.379 25.7689 105.51 25.7112Z" fill="#454B4D"/>
</svg>
